HIERARCHY
ROOT reference
{
  OFFSET -65.3212 -1.93545 -120.338
  CHANNELS 6 Xposition Yposition Zposition Zrotation Xrotation Yrotation
  JOINT Hips
  {
    OFFSET 0 78.7191 0
    CHANNELS 3 Zrotation Xrotation Yrotation
    JOINT Chest
    {
      OFFSET 0 8.7983 -4.7612
      CHANNELS 3 Zrotation Xrotation Yrotation
      JOINT Chest2
      {
        OFFSET 0 8.0291 0.4195
        CHANNELS 3 Zrotation Xrotation Yrotation
        JOINT Chest3
        {
          OFFSET 0 9.9351 -2.2114
          CHANNELS 3 Zrotation Xrotation Yrotation
          JOINT Neck
          {
            OFFSET 0 22.3885 -0.4656
            CHANNELS 3 Zrotation Xrotation Yrotation
            JOINT Head
            {
              OFFSET -0.0001 12.643 3.4389
              CHANNELS 3 Zrotation Xrotation Yrotation
              End Site
              {
                OFFSET 0.0001 17.6655 0.5274
              }
            }
          }
          JOINT LeftCollar
          {
            OFFSET 2.2603 21.606 7.4023
            CHANNELS 3 Zrotation Xrotation Yrotation
            JOINT LeftShoulder
            {
              OFFSET 13.5163 -1.1332 -5.0146
              CHANNELS 3 Zrotation Xrotation Yrotation
              JOINT LeftElbow
              {
                OFFSET -0.0995 -28.05 -0.2431
                CHANNELS 3 Zrotation Xrotation Yrotation
                JOINT LeftWrist
                {
                  OFFSET 0.0679 -23.3996 -0.1402
                  CHANNELS 3 Zrotation Xrotation Yrotation
                  JOINT LeftFinger1
                  {
                    OFFSET 0.7932 -9.069 2.5189
                    CHANNELS 3 Zrotation Xrotation Yrotation
                    JOINT LeftFinger11
                    {
                      OFFSET -0.8272 -3.3923 0.5977
                      CHANNELS 3 Zrotation Xrotation Yrotation
                      JOINT LeftFinger12
                      {
                        OFFSET -0.5649 -2.3158 0.4082
                        CHANNELS 3 Zrotation Xrotation Yrotation
                        End Site
                        {
                          OFFSET -0.4919 -1.6479 0.2673
                        }
                      }
                    }
                  }
                  JOINT LeftFinger2
                  {
                    OFFSET 0.9159 -9.2044 0.2193
                    CHANNELS 3 Zrotation Xrotation Yrotation
                    JOINT LeftFinger21
                    {
                      OFFSET 0.0117 -4.1944 -0.0248
                      CHANNELS 3 Zrotation Xrotation Yrotation
                      JOINT LeftFinger22
                      {
                        OFFSET 0.0071 -2.3249 -0.0142
                        CHANNELS 3 Zrotation Xrotation Yrotation
                        End Site
                        {
                          OFFSET -0.1475 -2.0882 0.0028
                        }
                      }
                    }
                  }
                  JOINT LeftFinger3
                  {
                    OFFSET 0.6113 -8.7231 -2.0637
                    CHANNELS 3 Zrotation Xrotation Yrotation
                    JOINT LeftFinger31
                    {
                      OFFSET -0.1927 -3.8059 -0.2383
                      CHANNELS 3 Zrotation Xrotation Yrotation
                      JOINT LeftFinger32
                      {
                        OFFSET -0.1091 -2.1688 -0.1362
                        CHANNELS 3 Zrotation Xrotation Yrotation
                        End Site
                        {
                          OFFSET -0.2358 -1.9176 -0.0906
                        }
                      }
                    }
                  }
                  JOINT LeftFinger4
                  {
                    OFFSET -0.6151 -8.0947 -3.5641
                    CHANNELS 3 Zrotation Xrotation Yrotation
                    JOINT LeftFinger41
                    {
                      OFFSET -0.4882 -2.341 -0.6462
                      CHANNELS 3 Zrotation Xrotation Yrotation
                      JOINT LeftFinger42
                      {
                        OFFSET -0.3575 -1.7167 -0.4742
                        CHANNELS 3 Zrotation Xrotation Yrotation
                        End Site
                        {
                          OFFSET -0.4187 -1.5237 -0.3496
                        }
                      }
                    }
                  }
                  JOINT LeftFinger0
                  {
                    OFFSET -1.42 -1.8761 1.4223
                    CHANNELS 3 Zrotation Xrotation Yrotation
                    JOINT LeftFinger01
                    {
                      OFFSET -1.1471 -3.4929 2.6334
                      CHANNELS 3 Zrotation Xrotation Yrotation
                      JOINT LeftFinger02
                      {
                        OFFSET -0.823 -2.3 1.6571
                        CHANNELS 3 Zrotation Xrotation Yrotation
                        End Site
                        {
                          OFFSET -0.5822 -1.6914 1.1582
                        }
                      }
                    }
                  }
                }
              }
            }
          }
          JOINT RightCollar
          {
            OFFSET -2.2603 21.606 7.4023
            CHANNELS 3 Zrotation Xrotation Yrotation
            JOINT RightShoulder
            {
              OFFSET -13.5187 -1.1334 -5.0155
              CHANNELS 3 Zrotation Xrotation Yrotation
              JOINT RightElbow
              {
                OFFSET 0.0994 -28.0499 -0.2431
                CHANNELS 3 Zrotation Xrotation Yrotation
                JOINT RightWrist
                {
                  OFFSET -0.0679 -23.3996 -0.1402
                  CHANNELS 3 Zrotation Xrotation Yrotation
                  JOINT RightFinger1
                  {
                    OFFSET -0.7932 -9.0691 2.5189
                    CHANNELS 3 Zrotation Xrotation Yrotation
                    JOINT RightFinger11
                    {
                      OFFSET 0.8272 -3.3923 0.5977
                      CHANNELS 3 Zrotation Xrotation Yrotation
                      JOINT RightFinger12
                      {
                        OFFSET 0.565 -2.3158 0.4082
                        CHANNELS 3 Zrotation Xrotation Yrotation
                        End Site
                        {
                          OFFSET 0.4919 -1.6479 0.2673
                        }
                      }
                    }
                  }
                  JOINT RightFinger2
                  {
                    OFFSET -0.916 -9.2044 0.2193
                    CHANNELS 3 Zrotation Xrotation Yrotation
                    JOINT RightFinger21
                    {
                      OFFSET -0.0117 -4.1944 -0.0248
                      CHANNELS 3 Zrotation Xrotation Yrotation
                      JOINT RightFinger22
                      {
                        OFFSET -0.0071 -2.3249 -0.0142
                        CHANNELS 3 Zrotation Xrotation Yrotation
                        End Site
                        {
                          OFFSET 0.1475 -2.0882 0.0028
                        }
                      }
                    }
                  }
                  JOINT RightFinger3
                  {
                    OFFSET -0.6113 -8.7231 -2.0637
                    CHANNELS 3 Zrotation Xrotation Yrotation
                    JOINT RightFinger31
                    {
                      OFFSET 0.1927 -3.8059 -0.2383
                      CHANNELS 3 Zrotation Xrotation Yrotation
                      JOINT RightFinger32
                      {
                        OFFSET 0.1091 -2.1688 -0.1362
                        CHANNELS 3 Zrotation Xrotation Yrotation
                        End Site
                        {
                          OFFSET 0.2358 -1.9176 -0.0906
                        }
                      }
                    }
                  }
                  JOINT RightFinger4
                  {
                    OFFSET 0.6151 -8.0947 -3.564
                    CHANNELS 3 Zrotation Xrotation Yrotation
                    JOINT RightFinger41
                    {
                      OFFSET 0.4882 -2.341 -0.6462
                      CHANNELS 3 Zrotation Xrotation Yrotation
                      JOINT RightFinger42
                      {
                        OFFSET 0.3574 -1.7166 -0.4742
                        CHANNELS 3 Zrotation Xrotation Yrotation
                        End Site
                        {
                          OFFSET 0.4187 -1.5237 -0.3496
                        }
                      }
                    }
                  }
                  JOINT RightFinger0
                  {
                    OFFSET 1.4199 -1.8761 1.4221
                    CHANNELS 3 Zrotation Xrotation Yrotation
                    JOINT RightFinger01
                    {
                      OFFSET 1.1472 -3.4929 2.6336
                      CHANNELS 3 Zrotation Xrotation Yrotation
                      JOINT RightFinger02
                      {
                        OFFSET 0.8229 -2.3 1.6571
                        CHANNELS 3 Zrotation Xrotation Yrotation
                        End Site
                        {
                          OFFSET 0.5822 -1.6914 1.1582
                        }
                      }
                    }
                  }
                }
              }
            }
          }
        }
      }
    }
    JOINT RightHip
    {
      OFFSET -9.412 3.9771 -0.7758
      CHANNELS 3 Zrotation Xrotation Yrotation
      JOINT RightKnee
      {
        OFFSET -0.7531 -40.938 0
        CHANNELS 3 Zrotation Xrotation Yrotation
        JOINT RightAnkle
        {
          OFFSET 0 -40.1986 0
          CHANNELS 3 Zrotation Xrotation Yrotation
          JOINT RightToe
          {
            OFFSET 0 -4.4182 9.239
            CHANNELS 3 Zrotation Xrotation Yrotation
            End Site
            {
              OFFSET 0 0 6.1981
            }
          }
        }
      }
    }
    JOINT LeftHip
    {
      OFFSET 9.4119 3.9773 -0.7758
      CHANNELS 3 Zrotation Xrotation Yrotation
      JOINT LeftKnee
      {
        OFFSET 0.7532 -40.9383 0
        CHANNELS 3 Zrotation Xrotation Yrotation
        JOINT LeftAnkle
        {
          OFFSET 0 -40.1986 0
          CHANNELS 3 Zrotation Xrotation Yrotation
          JOINT LeftToe
          {
            OFFSET 0 -4.4182 9.239
            CHANNELS 3 Zrotation Xrotation Yrotation
            End Site
            {
              OFFSET 0 0 6.1981
            }
          }
        }
      }
    }
  }
}
MOTION
Frames:	4
Frame Time:	0.0333333
36.2525 -41.3086 102.394 0 0 -0 86.6391 -79.9801 -88.3787 -3.85496 -2.69369 -1.22783 -7.77939 -5.29793 -2.63863 -7.77941 -5.29794 -2.63864 -7.64624 -17.6917 10.7893 4.52223 -33.5079 6.89088 28.563 1.00069 -2.20723 111.09 -59.8109 73.8595 -19.4749 -43.0078 30.2255 42.4112 -32.1349 -4.61493 6.21101 -4.94136 -2.50056 -0.276744 -3.38382 -1.46044 2.01547 -1.25044 0.130109 9.08745 -5.1809 -1.95451 -0.380416 -2.12636 0.40939 13.8279 -8.28349 2.35664 13.3047 -5.15235 1.29961 -0.484124 -3.04783 0.975128 14.5125 -9.43124 3.10029 12.8159 -0.111128 2.30063 -0.117399 -6.94757 4.87575 16.1156 -10.1151 4.06424 -13.8781 -2.85258 -7.28174 -5.1527 0.4236 0.272227 -7.1038 -9.65564 1.39444 -24.4301 -0.403994 23.8378 -50.4887 -17.2859 -44.2601 88.2731 -74.5296 54.6228 -66.755 -20.4689 16.8577 1.32573 6.78769 5.11883 7.45118 2.53074 -0.284957 5.53294 1.88405 -0.18007 -2.34916 -0.535325 3.03908 0.0578302 -0.251316 -0.0457085 -2.97028 -1.00773 -0.0967512 -10.4756 -4.14834 -1.56244 0.284162 -1.82667 -0.853344 -9.86641 -3.72117 -0.877607 -12.9538 -5.69 -3.38701 -0.471037 -2.35576 -4.04244 -12.6661 -4.53953 -1.5787 -7.54158 15.3813 5.53573 -1.62376 -1.25395 -1.58392 -3.53333 1.63562 0.717055 3.43302 -64.7773 6.54864 105.665 73.9609 -97.3143 4.02642 -3.44801 15.1731 0.710596 4.85438 -0.308971 4.26125 -69.7532 3.40176 179.304 59.4876 -178.642 -5.19361 -5.96292 -12.0051 0.131297 -0.553014 0.0411718 
36.9525 -41.253 102.909 0 0 -0 91.078 -79.8288 -84.1999 -3.93271 -2.82205 -1.25521 -7.94047 -5.5505 -2.70628 -7.94048 -5.5505 -2.70628 -7.34147 -17.2083 10.3072 5.05765 -34.355 6.88811 28.4311 1.06909 -1.60301 115.012 -59.9668 77.174 -17.3598 -41.1474 32.1877 40.1049 -31.8802 -5.19252 6.22699 -5.05845 -2.47436 -0.276376 -3.38022 -1.45854 2.00657 -1.24493 0.129463 9.15593 -5.22528 -1.9421 -0.381157 -2.13087 0.410057 13.8806 -8.31319 2.36925 13.379 -5.14999 1.29384 -0.483917 -3.04626 0.974725 14.6102 -9.49003 3.12867 12.8378 0.0059212 2.27551 -0.11741 -6.95384 4.87898 16.1643 -10.1427 4.08038 -13.9366 -2.90984 -7.31552 -5.18265 0.430729 0.269809 -7.19675 -9.78354 1.40488 -24.7688 -0.393359 22.915 -51.3229 -18.4547 -44.3722 86.702 -74.9803 53.3441 -66.8889 -18.8564 16.7419 1.32574 6.78769 5.11888 7.45118 2.53073 -0.284929 5.53305 1.88411 -0.180063 -2.34914 -0.535328 3.03908 0.0578561 -0.25131 -0.0456863 -2.97031 -1.00764 -0.0968595 -10.4756 -4.14834 -1.56244 0.284144 -1.82666 -0.853323 -9.86639 -3.72123 -0.877559 -12.9538 -5.68999 -3.387 -0.47098 -2.35576 -4.04241 -12.666 -4.53941 -1.57871 -7.5415 15.3813 5.53549 -1.62377 -1.25397 -1.58391 -3.53334 1.6356 0.717092 5.94379 -66.0224 8.9379 109.458 73.5219 -100.994 3.86057 -3.75382 15.4811 0.703805 4.80891 -0.305808 7.69687 -70.6246 6.6132 179.346 56.0319 -178.618 -5.08024 -7.06991 -12.2934 0.131893 -0.645696 0.0330422 
37.5656 -41.1739 103.34 0 0 -0 96.4854 -79.5493 -78.936 -3.98518 -2.93476 -1.35003 -8.05392 -5.76748 -2.90685 -8.05395 -5.76749 -2.90686 -7.14269 -17.363 9.84606 5.77527 -34.9984 7.01336 28.0289 1.1685 -0.648581 119.623 -60.0031 81.0077 -15.5387 -39.0771 33.4736 38.217 -31.4295 -5.15426 6.24953 -5.17901 -2.44863 -0.276015 -3.37661 -1.45662 2.00001 -1.24086 0.128954 9.22813 -5.27215 -1.92853 -0.381897 -2.13538 0.410702 13.9333 -8.34291 2.38189 13.4532 -5.14762 1.28807 -0.483678 -3.04469 0.97432 14.7094 -9.54961 3.15759 12.8621 0.11924 2.25277 -0.117439 -6.96014 4.88224 16.2129 -10.1703 4.09655 -13.9917 -2.96445 -7.34835 -5.21039 0.437285 0.267544 -7.28969 -9.91148 1.41512 -25.1426 -0.38743 21.9401 -52.181 -19.782 -44.5015 84.8258 -75.4909 51.8081 -66.9643 -17.3703 16.5368 1.32571 6.7877 5.11899 7.45118 2.53074 -0.284838 5.53317 1.88412 -0.180072 -2.34914 -0.53535 3.03908 0.0578287 -0.25132 -0.0456479 -2.97029 -1.00766 -0.0968564 -10.4756 -4.14836 -1.56245 0.284166 -1.82671 -0.853246 -9.86628 -3.72112 -0.877593 -12.9538 -5.69 -3.38699 -0.470982 -2.35581 -4.04234 -12.666 -4.53944 -1.57868 -7.54149 15.3813 5.53549 -1.62378 -1.25396 -1.5839 -3.53335 1.63558 0.717155 8.42885 -67.5831 11.3148 113.266 72.9615 -104.711 3.86687 -4.30191 15.3489 0.751424 5.12685 -0.328183 10.4372 -71.555 9.08316 179.381 52.7506 -178.588 -5.14787 -8.21092 -12.4657 0.101246 -0.495565 0.0251729 
38.1223 -41.1187 103.677 0 0 -0 101.516 -79.2376 -74.1495 -4.03965 -3.072 -1.38059 -8.16942 -6.03794 -2.98106 -8.16943 -6.03793 -2.98105 -6.97224 -17.5718 9.36685 6.34825 -35.6614 7.21309 27.907 1.25894 0.168291 123.556 -60.1937 84.3269 -13.6783 -37.2233 34.5495 36.5491 -30.9066 -4.91916 6.27923 -5.30354 -2.42339 -0.27567 -3.37297 -1.45474 1.9934 -1.23677 0.128457 9.30035 -5.31904 -1.91489 -0.382938 -2.14135 0.411525 13.9927 -8.37628 2.39615 13.529 -5.14878 1.28432 -0.483537 -3.04385 0.974117 14.8086 -9.60914 3.18662 12.8864 0.23253 2.23001 -0.117495 -6.9684 4.88651 16.2616 -10.1979 4.11275 -14.0469 -3.01903 -7.38124 -5.23812 0.44384 0.26522 -7.37998 -10.0357 1.42486 -25.5374 -0.383039 20.9449 -52.6531 -20.8039 -44.4803 83.5525 -76.0075 50.8895 -66.9224 -16.0141 16.4324 1.32577 6.78767 5.11879 7.4512 2.53075 -0.285006 5.5333 1.88419 -0.180081 -2.34913 -0.535335 3.03908 0.0578482 -0.251353 -0.0455649 -2.97029 -1.00766 -0.0968586 -10.4756 -4.14835 -1.56243 0.28415 -1.82661 -0.853383 -9.86623 -3.7212 -0.877537 -12.9538 -5.69 -3.38695 -0.47099 -2.35571 -4.04248 -12.6658 -4.53935 -1.57867 -7.5415 15.3813 5.53549 -1.62378 -1.25397 -1.58387 -3.53333 1.63566 0.717035 11.5885 -68.8837 14.5947 115.638 72.6504 -106.993 4.30067 -4.24536 15.1014 0.727496 4.96722 -0.316908 13.6745 -72.2165 12.3991 179.41 49.8816 -178.537 -5.4189 -9.20922 -12.4507 0.0906415 -0.48513 0.0185805 
